<?xml version="1.0" encoding="UTF-8" standalone="no"?>
<!DOCTYPE svg PUBLIC "-//W3C//DTD SVG 1.1//EN"
 "http://www.w3.org/Graphics/SVG/1.1/DTD/svg11.dtd">
<!-- Generated by graphviz version 2.43.0 (0)
 -->
<!-- Title: %3 Pages: 1 -->
<svg width="1089pt" height="404pt"
 viewBox="0.00 0.00 1089.00 404.00" xmlns="http://www.w3.org/2000/svg" xmlns:xlink="http://www.w3.org/1999/xlink">
<g id="graph0" class="graph" transform="scale(1 1) rotate(0) translate(4 400)">
<title>%3</title>
<polygon fill="white" stroke="transparent" points="-4,4 -4,-400 1085,-400 1085,4 -4,4"/>
<!-- a -->
<g id="node1" class="node">
<title>a</title>
<ellipse fill="none" stroke="black" cx="27" cy="-378" rx="27" ry="18"/>
<text text-anchor="middle" x="27" y="-374.3" font-family="Times,serif" font-size="14.00">a</text>
</g>
<!-- b -->
<g id="node2" class="node">
<title>b</title>
<ellipse fill="none" stroke="black" cx="27" cy="-306" rx="27" ry="18"/>
<text text-anchor="middle" x="27" y="-302.3" font-family="Times,serif" font-size="14.00">b</text>
</g>
<!-- a&#45;&gt;b -->
<g id="edge1" class="edge">
<title>a&#45;&gt;b</title>
<path fill="none" stroke="black" d="M21.16,-360.41C20.3,-352.51 20.05,-342.85 20.41,-333.94"/>
<polygon fill="black" stroke="black" points="23.9,-334.18 21.12,-323.96 16.92,-333.68 23.9,-334.18"/>
</g>
<!-- b&#45;&gt;a -->
<g id="edge2" class="edge">
<title>b&#45;&gt;a</title>
<path fill="none" stroke="blue" d="M32.88,-323.96C33.71,-331.83 33.95,-341.37 33.58,-350.19"/>
<polygon fill="blue" stroke="blue" points="30.07,-350.18 32.84,-360.41 37.06,-350.69 30.07,-350.18"/>
</g>
<!-- R -->
<g id="node3" class="node">
<title>R</title>
<ellipse fill="none" stroke="black" cx="99" cy="-378" rx="27" ry="18"/>
<text text-anchor="middle" x="99" y="-374.3" font-family="Times,serif" font-size="14.00">17</text>
</g>
<!-- R1234 -->
<g id="node4" class="node">
<title>R1234</title>
<ellipse fill="none" stroke="black" cx="185" cy="-378" rx="40.89" ry="18"/>
<text text-anchor="middle" x="185" y="-374.3" font-family="Times,serif" font-size="14.00">R1234</text>
</g>
<!-- A -->
<g id="node5" class="node">
<title>A</title>
<g id="a_node5"><a xlink:title="riggle&#10;diggle&#10;dumtree">
<polygon fill="none" stroke="black" points="134,-324 80,-324 80,-288 134,-288 134,-324"/>
<text text-anchor="middle" x="107" y="-302.3" font-family="Times,serif" font-size="14.00">3</text>
</a>
</g>
</g>
<!-- R1234&#45;&gt;A -->
<g id="edge3" class="edge">
<title>R1234&#45;&gt;A</title>
<path fill="none" stroke="black" d="M167.69,-361.46C157.7,-352.5 144.92,-341.03 133.67,-330.93"/>
<polygon fill="black" stroke="black" points="135.96,-328.29 126.18,-324.21 131.28,-333.49 135.96,-328.29"/>
</g>
<!-- B -->
<g id="node6" class="node">
<title>B</title>
<polygon fill="none" stroke="black" points="218,-324 152,-324 152,-288 218,-288 218,-324"/>
<text text-anchor="middle" x="185" y="-302.3" font-family="Times,serif" font-size="14.00">&#45;10004</text>
</g>
<!-- R1234&#45;&gt;B -->
<g id="edge4" class="edge">
<title>R1234&#45;&gt;B</title>
<path fill="none" stroke="black" d="M185,-359.7C185,-351.98 185,-342.71 185,-334.11"/>
<polygon fill="black" stroke="black" points="188.5,-334.1 185,-324.1 181.5,-334.1 188.5,-334.1"/>
</g>
<!-- C -->
<g id="node7" class="node">
<title>C</title>
<polygon fill="none" stroke="black" points="723,-324 669,-324 669,-288 723,-288 723,-324"/>
<text text-anchor="middle" x="696" y="-302.3" font-family="Times,serif" font-size="14.00">17</text>
</g>
<!-- R1234&#45;&gt;C -->
<g id="edge5" class="edge">
<title>R1234&#45;&gt;C</title>
<path fill="none" stroke="black" d="M223.41,-371.74C318.62,-358.7 564.6,-325 658.67,-312.11"/>
<polygon fill="black" stroke="black" points="659.42,-315.54 668.85,-310.72 658.47,-308.61 659.42,-315.54"/>
</g>
<!-- D -->
<g id="node8" class="node">
<title>D</title>
<g id="a_node8"><a xlink:title="pig&#10;blart">
<ellipse fill="none" stroke="black" cx="37" cy="-234" rx="27" ry="18"/>
<text text-anchor="middle" x="37" y="-230.3" font-family="Times,serif" font-size="14.00">3</text>
</a>
</g>
</g>
<!-- A&#45;&gt;D -->
<g id="edge6" class="edge">
<title>A&#45;&gt;D</title>
<path fill="none" stroke="black" d="M89.7,-287.7C80.28,-278.28 68.53,-266.53 58.53,-256.53"/>
<polygon fill="black" stroke="black" points="60.82,-253.88 51.28,-249.28 55.88,-258.82 60.82,-253.88"/>
</g>
<!-- E -->
<g id="node9" class="node">
<title>E</title>
<ellipse fill="none" stroke="black" cx="109" cy="-234" rx="27" ry="18"/>
<text text-anchor="middle" x="109" y="-230.3" font-family="Times,serif" font-size="14.00">31</text>
</g>
<!-- A&#45;&gt;E -->
<g id="edge7" class="edge">
<title>A&#45;&gt;E</title>
<path fill="none" stroke="black" d="M107.49,-287.7C107.71,-279.98 107.98,-270.71 108.23,-262.11"/>
<polygon fill="black" stroke="black" points="111.72,-262.2 108.51,-252.1 104.73,-262 111.72,-262.2"/>
</g>
<!-- F -->
<g id="node10" class="node">
<title>F</title>
<ellipse fill="none" stroke="black" cx="184" cy="-234" rx="27" ry="18"/>
<text text-anchor="middle" x="184" y="-230.3" font-family="Times,serif" font-size="14.00">F</text>
</g>
<!-- B&#45;&gt;F -->
<g id="edge8" class="edge">
<title>B&#45;&gt;F</title>
<path fill="none" stroke="black" d="M184.75,-287.7C184.64,-279.98 184.51,-270.71 184.39,-262.11"/>
<polygon fill="black" stroke="black" points="187.89,-262.05 184.24,-252.1 180.89,-262.15 187.89,-262.05"/>
</g>
<!-- W -->
<g id="node22" class="node">
<title>W</title>
<ellipse fill="none" stroke="black" cx="256" cy="-234" rx="27" ry="18"/>
<text text-anchor="middle" x="256" y="-230.3" font-family="Times,serif" font-size="14.00">W</text>
</g>
<!-- C&#45;&gt;W -->
<g id="edge9" class="edge">
<title>C&#45;&gt;W</title>
<path fill="none" stroke="black" d="M668.81,-300.67C592.73,-288.57 377.67,-254.36 291.93,-240.72"/>
<polygon fill="black" stroke="black" points="292.33,-237.24 281.9,-239.12 291.23,-244.15 292.33,-237.24"/>
</g>
<!-- X -->
<g id="node23" class="node">
<title>X</title>
<ellipse fill="none" stroke="black" cx="404" cy="-162" rx="27" ry="18"/>
<text text-anchor="middle" x="404" y="-158.3" font-family="Times,serif" font-size="14.00">X</text>
</g>
<!-- C&#45;&gt;X -->
<g id="edge14" class="edge">
<title>C&#45;&gt;X</title>
<path fill="none" stroke="black" d="M668.66,-304.7C623.25,-302.95 531.07,-294.03 468,-252 444.49,-236.33 426.72,-208.89 415.94,-188.62"/>
<polygon fill="black" stroke="black" points="419.01,-186.92 411.35,-179.59 412.77,-190.09 419.01,-186.92"/>
</g>
<!-- Y -->
<g id="node24" class="node">
<title>Y</title>
<ellipse fill="none" stroke="black" cx="504" cy="-234" rx="27" ry="18"/>
<text text-anchor="middle" x="504" y="-230.3" font-family="Times,serif" font-size="14.00">Y</text>
</g>
<!-- C&#45;&gt;Y -->
<g id="edge15" class="edge">
<title>C&#45;&gt;Y</title>
<path fill="none" stroke="black" d="M668.83,-295.97C638.47,-285.76 587.95,-268.43 545,-252 541.91,-250.82 538.69,-249.55 535.49,-248.26"/>
<polygon fill="black" stroke="black" points="536.62,-244.94 526.04,-244.4 533.97,-251.42 536.62,-244.94"/>
</g>
<!-- Z -->
<g id="node25" class="node">
<title>Z</title>
<ellipse fill="none" stroke="black" cx="476" cy="-162" rx="27" ry="18"/>
<text text-anchor="middle" x="476" y="-158.3" font-family="Times,serif" font-size="14.00">Z</text>
</g>
<!-- C&#45;&gt;Z -->
<g id="edge16" class="edge">
<title>C&#45;&gt;Z</title>
<path fill="none" stroke="black" d="M668.9,-295.81C644.08,-286.72 606.92,-271.37 578,-252 558.67,-239.05 557.41,-231.43 540,-216 527.28,-204.73 512.71,-192.61 500.69,-182.8"/>
<polygon fill="black" stroke="black" points="502.8,-180.01 492.83,-176.43 498.39,-185.45 502.8,-180.01"/>
</g>
<!-- AA -->
<g id="node26" class="node">
<title>AA</title>
<ellipse fill="none" stroke="black" cx="614" cy="-234" rx="27" ry="18"/>
<text text-anchor="middle" x="614" y="-230.3" font-family="Times,serif" font-size="14.00">AA</text>
</g>
<!-- C&#45;&gt;AA -->
<g id="edge21" class="edge">
<title>C&#45;&gt;AA</title>
<path fill="none" stroke="black" d="M675.73,-287.7C664.25,-277.89 649.82,-265.58 637.8,-255.32"/>
<polygon fill="black" stroke="black" points="639.81,-252.43 629.93,-248.6 635.26,-257.75 639.81,-252.43"/>
</g>
<!-- BB -->
<g id="node27" class="node">
<title>BB</title>
<ellipse fill="none" stroke="black" cx="707" cy="-162" rx="27" ry="18"/>
<text text-anchor="middle" x="707" y="-158.3" font-family="Times,serif" font-size="14.00">BB</text>
</g>
<!-- C&#45;&gt;BB -->
<g id="edge25" class="edge">
<title>C&#45;&gt;BB</title>
<path fill="none" stroke="black" d="M691.82,-287.83C688.04,-269.82 683.7,-240.76 688,-216 689.59,-206.86 692.61,-197.22 695.78,-188.7"/>
<polygon fill="black" stroke="black" points="699.07,-189.9 699.5,-179.31 692.56,-187.32 699.07,-189.9"/>
</g>
<!-- CC -->
<g id="node28" class="node">
<title>CC</title>
<ellipse fill="none" stroke="black" cx="724" cy="-234" rx="27" ry="18"/>
<text text-anchor="middle" x="724" y="-230.3" font-family="Times,serif" font-size="14.00">CC</text>
</g>
<!-- C&#45;&gt;CC -->
<g id="edge26" class="edge">
<title>C&#45;&gt;CC</title>
<path fill="none" stroke="black" d="M702.92,-287.7C706.12,-279.7 709.99,-270.02 713.54,-261.15"/>
<polygon fill="black" stroke="black" points="716.89,-262.21 717.35,-251.62 710.39,-259.61 716.89,-262.21"/>
</g>
<!-- DD -->
<g id="node29" class="node">
<title>DD</title>
<ellipse fill="none" stroke="black" cx="779" cy="-162" rx="27" ry="18"/>
<text text-anchor="middle" x="779" y="-158.3" font-family="Times,serif" font-size="14.00">DD</text>
</g>
<!-- C&#45;&gt;DD -->
<g id="edge27" class="edge">
<title>C&#45;&gt;DD</title>
<path fill="none" stroke="black" d="M723.08,-288.78C736.16,-279.59 750.95,-266.93 760,-252 771.29,-233.36 775.93,-208.97 777.81,-190.44"/>
<polygon fill="black" stroke="black" points="781.31,-190.54 778.63,-180.29 774.34,-189.98 781.31,-190.54"/>
</g>
<!-- EE -->
<g id="node30" class="node">
<title>EE</title>
<ellipse fill="none" stroke="black" cx="834" cy="-234" rx="27" ry="18"/>
<text text-anchor="middle" x="834" y="-230.3" font-family="Times,serif" font-size="14.00">EE</text>
</g>
<!-- C&#45;&gt;EE -->
<g id="edge28" class="edge">
<title>C&#45;&gt;EE</title>
<path fill="none" stroke="black" d="M723.26,-291.17C746.56,-279.35 780.03,-262.37 804.07,-250.18"/>
<polygon fill="black" stroke="black" points="805.76,-253.25 813.1,-245.6 802.6,-247.01 805.76,-253.25"/>
</g>
<!-- FF -->
<g id="node31" class="node">
<title>FF</title>
<ellipse fill="none" stroke="black" cx="889" cy="-162" rx="27" ry="18"/>
<text text-anchor="middle" x="889" y="-158.3" font-family="Times,serif" font-size="14.00">FF</text>
</g>
<!-- C&#45;&gt;FF -->
<g id="edge29" class="edge">
<title>C&#45;&gt;FF</title>
<path fill="none" stroke="black" d="M723.06,-304.82C761.54,-303.01 831.66,-293.75 870,-252 885.24,-235.4 889.39,-209.68 890.09,-190.15"/>
<polygon fill="black" stroke="black" points="893.59,-190.06 890.17,-180.04 886.59,-190.01 893.59,-190.06"/>
</g>
<!-- GG -->
<g id="node32" class="node">
<title>GG</title>
<ellipse fill="none" stroke="black" cx="944" cy="-234" rx="27" ry="18"/>
<text text-anchor="middle" x="944" y="-230.3" font-family="Times,serif" font-size="14.00">GG</text>
</g>
<!-- C&#45;&gt;GG -->
<g id="edge30" class="edge">
<title>C&#45;&gt;GG</title>
<path fill="none" stroke="black" d="M723.15,-299.34C763.05,-290.74 839.65,-273.12 903,-252 906.14,-250.95 909.39,-249.78 912.61,-248.55"/>
<polygon fill="black" stroke="black" points="914.1,-251.72 922.09,-244.76 911.5,-245.22 914.1,-251.72"/>
</g>
<!-- HH -->
<g id="node33" class="node">
<title>HH</title>
<ellipse fill="none" stroke="black" cx="999" cy="-162" rx="27" ry="18"/>
<text text-anchor="middle" x="999" y="-158.3" font-family="Times,serif" font-size="14.00">HH</text>
</g>
<!-- C&#45;&gt;HH -->
<g id="edge31" class="edge">
<title>C&#45;&gt;HH</title>
<path fill="none" stroke="black" d="M723.26,-303.67C787.1,-299.98 943.63,-287.44 980,-252 996.31,-236.11 1000.27,-209.91 1000.63,-190.04"/>
<polygon fill="black" stroke="black" points="1004.13,-190 1000.52,-180.04 997.13,-190.07 1004.13,-190"/>
</g>
<!-- II -->
<g id="node34" class="node">
<title>II</title>
<ellipse fill="none" stroke="black" cx="1054" cy="-234" rx="27" ry="18"/>
<text text-anchor="middle" x="1054" y="-230.3" font-family="Times,serif" font-size="14.00">II</text>
</g>
<!-- C&#45;&gt;II -->
<g id="edge32" class="edge">
<title>C&#45;&gt;II</title>
<path fill="none" stroke="black" d="M723.18,-302.56C778.57,-297.13 908.14,-282.08 1013,-252 1016.18,-251.09 1019.46,-250 1022.7,-248.82"/>
<polygon fill="black" stroke="black" points="1024.16,-252.01 1032.2,-245.12 1021.61,-245.49 1024.16,-252.01"/>
</g>
<!-- AAA -->
<g id="node11" class="node">
<title>AAA</title>
<polygon fill="none" stroke="blue" points="586,-108 532,-108 532,-72 586,-72 586,-108"/>
<text text-anchor="middle" x="559" y="-86.3" font-family="Times,serif" font-size="14.00" fill="blue">AAA</text>
</g>
<!-- BBB -->
<g id="node12" class="node">
<title>BBB</title>
<polygon fill="none" stroke="blue" points="641,-36 587,-36 587,0 641,0 641,-36"/>
<text text-anchor="middle" x="614" y="-14.3" font-family="Times,serif" font-size="14.00" fill="blue">BBB</text>
</g>
<!-- CCC -->
<g id="node13" class="node">
<title>CCC</title>
<polygon fill="none" stroke="blue" points="696,-108 642,-108 642,-72 696,-72 696,-108"/>
<text text-anchor="middle" x="669" y="-86.3" font-family="Times,serif" font-size="14.00" fill="blue">CCC</text>
</g>
<!-- DDD -->
<g id="node14" class="node">
<title>DDD</title>
<polygon fill="none" stroke="green" points="366,-108 312,-108 312,-72 366,-72 366,-108"/>
<text text-anchor="middle" x="339" y="-86.3" font-family="Times,serif" font-size="14.00" fill="green">DDD</text>
</g>
<!-- EEE -->
<g id="node15" class="node">
<title>EEE</title>
<polygon fill="none" stroke="green" points="421,-36 367,-36 367,0 421,0 421,-36"/>
<text text-anchor="middle" x="394" y="-14.3" font-family="Times,serif" font-size="14.00" fill="green">EEE</text>
</g>
<!-- FFF -->
<g id="node16" class="node">
<title>FFF</title>
<polygon fill="none" stroke="green" points="476,-108 422,-108 422,-72 476,-72 476,-108"/>
<text text-anchor="middle" x="449" y="-86.3" font-family="Times,serif" font-size="14.00" fill="green">FFF</text>
</g>
<!-- GGG -->
<g id="node17" class="node">
<title>GGG</title>
<polygon fill="none" stroke="green" points="531,-36 477,-36 477,0 531,0 531,-36"/>
<text text-anchor="middle" x="504" y="-14.3" font-family="Times,serif" font-size="14.00" fill="green">GGG</text>
</g>
<!-- HHH -->
<g id="node18" class="node">
<title>HHH</title>
<polygon fill="none" stroke="red" points="146,-108 92,-108 92,-72 146,-72 146,-108"/>
<text text-anchor="middle" x="119" y="-86.3" font-family="Times,serif" font-size="14.00" fill="red">HHH</text>
</g>
<!-- III -->
<g id="node19" class="node">
<title>III</title>
<polygon fill="none" stroke="red" points="201,-36 147,-36 147,0 201,0 201,-36"/>
<text text-anchor="middle" x="174" y="-14.3" font-family="Times,serif" font-size="14.00" fill="red">III</text>
</g>
<!-- JJJ -->
<g id="node20" class="node">
<title>JJJ</title>
<polygon fill="none" stroke="red" points="256,-108 202,-108 202,-72 256,-72 256,-108"/>
<text text-anchor="middle" x="229" y="-86.3" font-family="Times,serif" font-size="14.00" fill="red">JJJ</text>
</g>
<!-- KJK -->
<g id="node21" class="node">
<title>KJK</title>
<polygon fill="none" stroke="red" points="311,-36 257,-36 257,0 311,0 311,-36"/>
<text text-anchor="middle" x="284" y="-14.3" font-family="Times,serif" font-size="14.00" fill="red">KJK</text>
</g>
<!-- W&#45;&gt;HHH -->
<g id="edge10" class="edge">
<title>W&#45;&gt;HHH</title>
<path fill="none" stroke="black" d="M234.95,-222.27C208.45,-208.63 165.67,-186.1 160,-180 143.6,-162.36 132.8,-137.02 126.42,-117.88"/>
<polygon fill="black" stroke="black" points="129.74,-116.74 123.41,-108.25 123.06,-118.84 129.74,-116.74"/>
</g>
<!-- W&#45;&gt;III -->
<g id="edge11" class="edge">
<title>W&#45;&gt;III</title>
<path fill="none" stroke="black" d="M246.25,-217.01C232.49,-193.8 207.45,-149.03 193,-108 185.88,-87.79 180.97,-64.01 177.93,-46.12"/>
<polygon fill="black" stroke="black" points="181.36,-45.4 176.31,-36.09 174.45,-46.52 181.36,-45.4"/>
</g>
<!-- W&#45;&gt;JJJ -->
<g id="edge12" class="edge">
<title>W&#45;&gt;JJJ</title>
<path fill="none" stroke="black" d="M252.74,-215.87C248.14,-191.67 239.69,-147.21 234.21,-118.39"/>
<polygon fill="black" stroke="black" points="237.57,-117.36 232.27,-108.19 230.7,-118.67 237.57,-117.36"/>
</g>
<!-- W&#45;&gt;KJK -->
<g id="edge13" class="edge">
<title>W&#45;&gt;KJK</title>
<path fill="none" stroke="black" d="M258.24,-215.85C263.09,-178.83 274.56,-91.18 280.42,-46.39"/>
<polygon fill="black" stroke="black" points="283.92,-46.6 281.75,-36.23 276.98,-45.69 283.92,-46.6"/>
</g>
<!-- Z&#45;&gt;DDD -->
<g id="edge17" class="edge">
<title>Z&#45;&gt;DDD</title>
<path fill="none" stroke="black" d="M455.19,-150.37C433.99,-139.54 400.69,-122.52 375.17,-109.48"/>
<polygon fill="black" stroke="black" points="376.65,-106.31 366.15,-104.87 373.46,-112.54 376.65,-106.31"/>
</g>
<!-- Z&#45;&gt;EEE -->
<g id="edge18" class="edge">
<title>Z&#45;&gt;EEE</title>
<path fill="none" stroke="black" d="M456.46,-149.57C442.21,-140.21 423.6,-125.64 413,-108 401.78,-89.32 397.13,-64.93 395.24,-46.41"/>
<polygon fill="black" stroke="black" points="398.71,-45.95 394.41,-36.27 391.73,-46.52 398.71,-45.95"/>
</g>
<!-- Z&#45;&gt;FFF -->
<g id="edge19" class="edge">
<title>Z&#45;&gt;FFF</title>
<path fill="none" stroke="black" d="M469.6,-144.41C466.56,-136.54 462.86,-126.93 459.43,-118.04"/>
<polygon fill="black" stroke="black" points="462.59,-116.52 455.73,-108.45 456.06,-119.04 462.59,-116.52"/>
</g>
<!-- Z&#45;&gt;GGG -->
<g id="edge20" class="edge">
<title>Z&#45;&gt;GGG</title>
<path fill="none" stroke="black" d="M479.38,-143.87C484.17,-119.56 492.99,-74.82 498.67,-46.01"/>
<polygon fill="black" stroke="black" points="502.11,-46.68 500.61,-36.19 495.24,-45.32 502.11,-46.68"/>
</g>
<!-- AA&#45;&gt;AAA -->
<g id="edge22" class="edge">
<title>AA&#45;&gt;AAA</title>
<path fill="none" stroke="black" d="M607.58,-216.43C598.2,-192.22 580.65,-146.89 569.41,-117.87"/>
<polygon fill="black" stroke="black" points="572.59,-116.41 565.72,-108.35 566.07,-118.94 572.59,-116.41"/>
</g>
<!-- AA&#45;&gt;BBB -->
<g id="edge23" class="edge">
<title>AA&#45;&gt;BBB</title>
<path fill="none" stroke="black" d="M614,-215.85C614,-178.83 614,-91.18 614,-46.39"/>
<polygon fill="black" stroke="black" points="617.5,-46.23 614,-36.23 610.5,-46.23 617.5,-46.23"/>
</g>
<!-- AA&#45;&gt;CCC -->
<g id="edge24" class="edge">
<title>AA&#45;&gt;CCC</title>
<path fill="none" stroke="black" d="M620.42,-216.43C629.8,-192.22 647.35,-146.89 658.59,-117.87"/>
<polygon fill="black" stroke="black" points="661.93,-118.94 662.28,-108.35 655.41,-116.41 661.93,-118.94"/>
</g>
</g>
</svg>
