<?xml version="1.0" encoding="UTF-8" standalone="no"?>
<!DOCTYPE svg PUBLIC "-//W3C//DTD SVG 1.1//EN"
 "http://www.w3.org/Graphics/SVG/1.1/DTD/svg11.dtd">
<!-- Generated by graphviz version 2.40.1 (20161225.0304)
 -->
<!-- Title: %3 Pages: 1 -->
<svg width="284pt" height="188pt"
 viewBox="0.00 0.00 284.00 188.00" xmlns="http://www.w3.org/2000/svg" xmlns:xlink="http://www.w3.org/1999/xlink">
<g id="graph0" class="graph" transform="scale(1 1) rotate(0) translate(4 184)">
<title>%3</title>
<polygon fill="#ffffff" stroke="transparent" points="-4,4 -4,-184 280,-184 280,4 -4,4"/>
<!-- a -->
<g id="node1" class="node">
<title>a</title>
<ellipse fill="none" stroke="#000000" cx="27" cy="-162" rx="27" ry="18"/>
<text text-anchor="middle" x="27" y="-158.3" font-family="Times,serif" font-size="14.00" fill="#000000">a</text>
</g>
<!-- b -->
<g id="node2" class="node">
<title>b</title>
<ellipse fill="none" stroke="#000000" cx="27" cy="-90" rx="27" ry="18"/>
<text text-anchor="middle" x="27" y="-86.3" font-family="Times,serif" font-size="14.00" fill="#000000">b</text>
</g>
<!-- a&#45;&gt;b -->
<g id="edge1" class="edge">
<title>a&#45;&gt;b</title>
<path fill="none" stroke="#000000" d="M21.0843,-144.2022C20.2798,-136.1807 20.0571,-126.5231 20.4162,-117.5957"/>
<polygon fill="#000000" stroke="#000000" points="23.9097,-117.8099 21.105,-107.593 16.9262,-117.3289 23.9097,-117.8099"/>
</g>
<!-- b&#45;&gt;a -->
<g id="edge2" class="edge">
<title>b&#45;&gt;a</title>
<path fill="none" stroke="#0000ff" d="M32.895,-107.593C33.7094,-115.5865 33.942,-125.2363 33.5928,-134.1759"/>
<polygon fill="#0000ff" stroke="#0000ff" points="30.0976,-133.9891 32.9157,-144.2022 37.0817,-134.4608 30.0976,-133.9891"/>
</g>
<!-- R -->
<g id="node3" class="node">
<title>R</title>
<ellipse fill="none" stroke="#000000" cx="176" cy="-162" rx="27" ry="18"/>
<text text-anchor="middle" x="176" y="-158.3" font-family="Times,serif" font-size="14.00" fill="#000000">17</text>
</g>
<!-- A -->
<g id="node4" class="node">
<title>A</title>
<g id="a_node4"><a xlink:title="riggle&#10;diggle&#10;dumtree">
<polygon fill="none" stroke="#000000" points="126,-108 72,-108 72,-72 126,-72 126,-108"/>
<text text-anchor="middle" x="99" y="-86.3" font-family="Times,serif" font-size="14.00" fill="#000000">3</text>
</a>
</g>
</g>
<!-- R&#45;&gt;A -->
<g id="edge3" class="edge">
<title>R&#45;&gt;A</title>
<path fill="none" stroke="#000000" d="M160.0456,-147.0816C150.2388,-137.9116 137.4188,-125.9241 126.0601,-115.3029"/>
<polygon fill="#000000" stroke="#000000" points="128.1795,-112.493 118.4848,-108.2195 123.3985,-117.606 128.1795,-112.493"/>
</g>
<!-- B -->
<g id="node5" class="node">
<title>B</title>
<polygon fill="none" stroke="#000000" points="203.5,-108 148.5,-108 148.5,-72 203.5,-72 203.5,-108"/>
<text text-anchor="middle" x="176" y="-86.3" font-family="Times,serif" font-size="14.00" fill="#000000">&#45;10004</text>
</g>
<!-- R&#45;&gt;B -->
<g id="edge4" class="edge">
<title>R&#45;&gt;B</title>
<path fill="none" stroke="#000000" d="M176,-143.8314C176,-136.131 176,-126.9743 176,-118.4166"/>
<polygon fill="#000000" stroke="#000000" points="179.5001,-118.4132 176,-108.4133 172.5001,-118.4133 179.5001,-118.4132"/>
</g>
<!-- C -->
<g id="node6" class="node">
<title>C</title>
<polygon fill="none" stroke="#000000" points="276,-108 222,-108 222,-72 276,-72 276,-108"/>
<text text-anchor="middle" x="249" y="-86.3" font-family="Times,serif" font-size="14.00" fill="#000000">17</text>
</g>
<!-- R&#45;&gt;C -->
<g id="edge5" class="edge">
<title>R&#45;&gt;C</title>
<path fill="none" stroke="#000000" d="M191.1256,-147.0816C200.4229,-137.9116 212.5769,-125.9241 223.3456,-115.3029"/>
<polygon fill="#000000" stroke="#000000" points="225.8655,-117.7336 230.5274,-108.2195 220.95,-112.7498 225.8655,-117.7336"/>
</g>
<!-- D -->
<g id="node7" class="node">
<title>D</title>
<g id="a_node7"><a xlink:title="pig&#10;blart">
<ellipse fill="none" stroke="#000000" cx="27" cy="-18" rx="27" ry="18"/>
<text text-anchor="middle" x="27" y="-14.3" font-family="Times,serif" font-size="14.00" fill="#000000">3</text>
</a>
</g>
</g>
<!-- A&#45;&gt;D -->
<g id="edge6" class="edge">
<title>A&#45;&gt;D</title>
<path fill="none" stroke="#000000" d="M80.8314,-71.8314C71.2706,-62.2706 59.4651,-50.4651 49.3481,-40.3481"/>
<polygon fill="#000000" stroke="#000000" points="51.5519,-37.6021 42.0059,-33.0059 46.6021,-42.5519 51.5519,-37.6021"/>
</g>
<!-- E -->
<g id="node8" class="node">
<title>E</title>
<ellipse fill="none" stroke="#000000" cx="99" cy="-18" rx="27" ry="18"/>
<text text-anchor="middle" x="99" y="-14.3" font-family="Times,serif" font-size="14.00" fill="#000000">31</text>
</g>
<!-- A&#45;&gt;E -->
<g id="edge7" class="edge">
<title>A&#45;&gt;E</title>
<path fill="none" stroke="#000000" d="M99,-71.8314C99,-64.131 99,-54.9743 99,-46.4166"/>
<polygon fill="#000000" stroke="#000000" points="102.5001,-46.4132 99,-36.4133 95.5001,-46.4133 102.5001,-46.4132"/>
</g>
<!-- F -->
<g id="node9" class="node">
<title>F</title>
<ellipse fill="none" stroke="#000000" cx="180" cy="-18" rx="35.9954" ry="18"/>
<text text-anchor="middle" x="180" y="-14.3" font-family="Times,serif" font-size="14.00" fill="#000000">&#45;10004</text>
</g>
<!-- B&#45;&gt;F -->
<g id="edge8" class="edge">
<title>B&#45;&gt;F</title>
<path fill="none" stroke="#000000" d="M177.0094,-71.8314C177.4372,-64.131 177.9459,-54.9743 178.4213,-46.4166"/>
<polygon fill="#000000" stroke="#000000" points="181.9169,-46.592 178.977,-36.4133 174.9276,-46.2037 181.9169,-46.592"/>
</g>
</g>
</svg>
