<?xml version="1.0" encoding="UTF-8" standalone="no"?>
<!DOCTYPE svg PUBLIC "-//W3C//DTD SVG 1.1//EN"
 "http://www.w3.org/Graphics/SVG/1.1/DTD/svg11.dtd">
<!-- Generated by graphviz version 2.44.0 (20200408.0750)
 -->
<!-- Title: diggy Pages: 1 -->
<svg width="284pt" height="188pt"
 viewBox="0.00 0.00 284.00 188.00" xmlns="http://www.w3.org/2000/svg" xmlns:xlink="http://www.w3.org/1999/xlink">
<g id="graph0" class="graph" transform="scale(1 1) rotate(0) translate(4 184)">
<title>diggy</title>
<polygon fill="darkgreen" stroke="transparent" points="-4,4 -4,-184 280,-184 280,4 -4,4"/>
<!-- R1234 -->
<g id="node1" class="node">
<title>R1234</title>
<ellipse fill="none" stroke="black" cx="176" cy="-162" rx="27" ry="18"/>
<text text-anchor="middle" x="176" y="-158.3" font-family="Times,serif" font-size="14.00">17</text>
</g>
<!-- A -->
<g id="node2" class="node">
<title>A</title>
<g id="a_node2"><a xlink:title="riggle&#10;diggle&#10;dumtree">
<polygon fill="pink" stroke="pink" points="126,-108 72,-108 72,-72 126,-72 126,-108"/>
<text text-anchor="middle" x="99" y="-86.3" font-family="Times,serif" font-size="14.00">Q</text>
</a>
</g>
</g>
<!-- R1234&#45;&gt;A -->
<g id="edge1" class="edge">
<title>R1234&#45;&gt;A</title>
<path fill="none" stroke="black" d="M160.42,-146.83C150.42,-137.75 137.18,-125.71 125.56,-115.14"/>
<polygon fill="black" stroke="black" points="127.58,-112.25 117.82,-108.11 122.87,-117.43 127.58,-112.25"/>
</g>
<!-- B -->
<g id="node3" class="node">
<title>B</title>
<polygon fill="purple" stroke="purple" points="203.5,-108 148.5,-108 148.5,-72 203.5,-72 203.5,-108"/>
<text text-anchor="middle" x="176" y="-86.3" font-family="Times,serif" font-size="14.00">&#45;10004</text>
</g>
<!-- R1234&#45;&gt;B -->
<g id="edge2" class="edge">
<title>R1234&#45;&gt;B</title>
<path fill="none" stroke="black" d="M176,-143.7C176,-135.98 176,-126.71 176,-118.11"/>
<polygon fill="black" stroke="black" points="179.5,-118.1 176,-108.1 172.5,-118.1 179.5,-118.1"/>
</g>
<!-- C -->
<g id="node4" class="node">
<title>C</title>
<polygon fill="lightblue" stroke="lightblue" points="276,-108 222,-108 222,-72 276,-72 276,-108"/>
<text text-anchor="middle" x="249" y="-86.3" font-family="Times,serif" font-size="14.00">99</text>
</g>
<!-- R1234&#45;&gt;C -->
<g id="edge3" class="edge">
<title>R1234&#45;&gt;C</title>
<path fill="none" stroke="black" d="M190.77,-146.83C200.25,-137.75 212.8,-125.71 223.82,-115.14"/>
<polygon fill="black" stroke="black" points="226.36,-117.56 231.15,-108.11 221.51,-112.51 226.36,-117.56"/>
</g>
<!-- D -->
<g id="node5" class="node">
<title>D</title>
<g id="a_node5"><a xlink:title="pig&#10;blart">
<ellipse fill="none" stroke="black" cx="27" cy="-18" rx="27" ry="18"/>
<text text-anchor="middle" x="27" y="-14.3" font-family="Times,serif" font-size="14.00">3</text>
</a>
</g>
</g>
<!-- A&#45;&gt;D -->
<g id="edge4" class="edge">
<title>A&#45;&gt;D</title>
<path fill="none" stroke="black" d="M81.2,-71.7C71.51,-62.28 59.44,-50.53 49.14,-40.53"/>
<polygon fill="black" stroke="black" points="51.3,-37.74 41.69,-33.28 46.42,-42.76 51.3,-37.74"/>
</g>
<!-- E -->
<g id="node6" class="node">
<title>E</title>
<ellipse fill="none" stroke="black" cx="99" cy="-18" rx="27" ry="18"/>
<text text-anchor="middle" x="99" y="-14.3" font-family="Times,serif" font-size="14.00">31</text>
</g>
<!-- A&#45;&gt;E -->
<g id="edge5" class="edge">
<title>A&#45;&gt;E</title>
<path fill="none" stroke="black" d="M99,-71.7C99,-63.98 99,-54.71 99,-46.11"/>
<polygon fill="black" stroke="black" points="102.5,-46.1 99,-36.1 95.5,-46.1 102.5,-46.1"/>
</g>
<!-- F -->
<g id="node7" class="node">
<title>F</title>
<ellipse fill="red" stroke="red" cx="180" cy="-18" rx="36" ry="18"/>
<text text-anchor="middle" x="180" y="-14.3" font-family="Times,serif" font-size="14.00">&#45;10004</text>
</g>
<!-- B&#45;&gt;F -->
<g id="edge6" class="edge">
<title>B&#45;&gt;F</title>
<path fill="none" stroke="black" d="M176.99,-71.7C177.43,-63.98 177.96,-54.71 178.45,-46.11"/>
<polygon fill="black" stroke="black" points="181.95,-46.29 179.02,-36.1 174.96,-45.89 181.95,-46.29"/>
</g>
</g>
</svg>
