<?xml version="1.0" encoding="UTF-8" standalone="no"?>
<!DOCTYPE svg PUBLIC "-//W3C//DTD SVG 1.1//EN"
 "http://www.w3.org/Graphics/SVG/1.1/DTD/svg11.dtd">
<!-- Generated by graphviz version 2.40.1 (20161225.0304)
 -->
<!-- Title: %3 Pages: 1 -->
<svg width="2078pt" height="188pt"
 viewBox="0.00 0.00 2078.00 188.00" xmlns="http://www.w3.org/2000/svg" xmlns:xlink="http://www.w3.org/1999/xlink">
<g id="graph0" class="graph" transform="scale(1 1) rotate(0) translate(4 184)">
<title>%3</title>
<polygon fill="#ffffff" stroke="transparent" points="-4,4 -4,-184 2074,-184 2074,4 -4,4"/>
<!-- N1 -->
<g id="node1" class="node">
<title>N1</title>
<g id="a_node1"><a xlink:title="id: 1 max: Y dep: 2 trm: N&#10;stot: &#160;0 val: &#45;2 hv: 0 mxs: &#160;50 mns: 117&#10;hand: 5h 6h Qh Jh &#160;stack: empty&#10;A4 24 34 44 53 63 74 84 94 04 J3 Q3 K4 ">
<polygon fill="none" stroke="#000000" points="1350,-162 1336.5,-180 1309.5,-180 1296,-162 1309.5,-144 1336.5,-144 1350,-162"/>
<text text-anchor="middle" x="1323" y="-158.3" font-family="Times,serif" font-size="14.00" fill="#000000">&#45;2</text>
</a>
</g>
</g>
<!-- N2 -->
<g id="node2" class="node">
<title>N2</title>
<g id="a_node2"><a xlink:title="id: 2 max: N dep: 1 trm: N&#10;stot: &#160;5 val: &#45;2 hv: 0 mxs: &#160;50 mns: 117&#10;hand: 6h Qh Jh &#160;stack: 5h &#10;A4 24 34 44 53 63 74 84 94 04 J3 Q3 K4 ">
<polygon fill="none" stroke="#000000" points="522,-108 468,-108 468,-72 522,-72 522,-108"/>
<text text-anchor="middle" x="495" y="-86.3" font-family="Times,serif" font-size="14.00" fill="#000000">&#45;2</text>
</a>
</g>
</g>
<!-- N1&#45;&gt;N2 -->
<g id="edge1" class="edge">
<title>N1&#45;&gt;N2</title>
<path fill="none" stroke="#000000" d="M1297.3117,-159.7662C1177.5967,-149.3562 674.2814,-105.5897 532.3829,-93.2507"/>
<polygon fill="#000000" stroke="#000000" points="532.3073,-89.731 522.0417,-92.3514 531.7008,-96.7047 532.3073,-89.731"/>
</g>
<!-- N3 -->
<g id="node3" class="node">
<title>N3</title>
<g id="a_node3"><a xlink:title="id: 3 max: N dep: 1 trm: N&#10;stot: &#160;6 val: &#45;2 hv: 0 mxs: &#160;50 mns: 117&#10;hand: 5h Qh Jh &#160;stack: 6h &#10;A4 24 34 44 53 63 74 84 94 04 J3 Q3 K4 ">
<polygon fill="none" stroke="#000000" points="1206,-108 1152,-108 1152,-72 1206,-72 1206,-108"/>
<text text-anchor="middle" x="1179" y="-86.3" font-family="Times,serif" font-size="14.00" fill="#000000">&#45;2</text>
</a>
</g>
</g>
<!-- N1&#45;&gt;N3 -->
<g id="edge2" class="edge">
<title>N1&#45;&gt;N3</title>
<path fill="none" stroke="#000000" d="M1303.2794,-152.1397C1280.6496,-140.8248 1243.0705,-122.0353 1215.1492,-108.0746"/>
<polygon fill="#000000" stroke="#000000" points="1216.5955,-104.8847 1206.086,-103.543 1213.465,-111.1457 1216.5955,-104.8847"/>
</g>
<!-- N4 -->
<g id="node4" class="node">
<title>N4</title>
<g id="a_node4"><a xlink:title="id: 4 max: N dep: 1 trm: N&#10;stot: 10 val: &#45;2 hv: 0 mxs: &#160;50 mns: 117&#10;hand: 5h 6h Jh &#160;stack: Qh &#10;A4 24 34 44 53 63 74 84 94 04 J3 Q3 K4 ">
<polygon fill="none" stroke="#000000" points="1530,-108 1476,-108 1476,-72 1530,-72 1530,-108"/>
<text text-anchor="middle" x="1503" y="-86.3" font-family="Times,serif" font-size="14.00" fill="#000000">&#45;2</text>
</a>
</g>
</g>
<!-- N1&#45;&gt;N4 -->
<g id="edge3" class="edge">
<title>N1&#45;&gt;N4</title>
<path fill="none" stroke="#000000" d="M1344.0006,-153.5998C1374.0518,-141.5793 1429.7529,-119.2989 1466.5991,-104.5603"/>
<polygon fill="#000000" stroke="#000000" points="1468.0087,-107.7662 1475.9936,-100.8026 1465.409,-101.2669 1468.0087,-107.7662"/>
</g>
<!-- N5 -->
<g id="node5" class="node">
<title>N5</title>
<g id="a_node5"><a xlink:title="id: 5 max: N dep: 1 trm: N&#10;stot: 10 val: &#45;2 hv: 0 mxs: &#160;50 mns: 117&#10;hand: 5h 6h Qh &#160;stack: Jh &#10;A4 24 34 44 53 63 74 84 94 04 J3 Q3 K4 ">
<polygon fill="none" stroke="#000000" points="1890,-108 1836,-108 1836,-72 1890,-72 1890,-108"/>
<text text-anchor="middle" x="1863" y="-86.3" font-family="Times,serif" font-size="14.00" fill="#000000">&#45;2</text>
</a>
</g>
</g>
<!-- N1&#45;&gt;N5 -->
<g id="edge4" class="edge">
<title>N1&#45;&gt;N5</title>
<path fill="none" stroke="#000000" d="M1347.6059,-158.7192C1433.7799,-147.2293 1722.3189,-108.7575 1825.7283,-94.9696"/>
<polygon fill="#000000" stroke="#000000" points="1826.2622,-98.4294 1835.7119,-93.6384 1825.337,-91.4908 1826.2622,-98.4294"/>
</g>
<!-- N6 -->
<g id="node6" class="node">
<title>N6</title>
<g id="a_node6"><a xlink:title="id: 6 max: Y dep: 0 trm: N&#10;stot: &#160;6 val: &#160;0 hv: 0 mxs: &#160;50 mns: 117&#10;hand: 6h Qh Jh &#160;stack: 5h Ah &#10;A3 24 34 44 53 63 74 84 94 04 J3 Q3 K4 ">
<polygon fill="none" stroke="#000000" points="54,-18 40.5,-36 13.5,-36 0,-18 13.5,0 40.5,0 54,-18"/>
<text text-anchor="middle" x="27" y="-14.3" font-family="Times,serif" font-size="14.00" fill="#000000">0</text>
</a>
</g>
</g>
<!-- N2&#45;&gt;N6 -->
<g id="edge5" class="edge">
<title>N2&#45;&gt;N6</title>
<path fill="none" stroke="#000000" d="M467.8974,-87.8203C385.6208,-81.0136 139.681,-59.2171 63,-36 60.3938,-35.2109 57.7469,-34.245 55.132,-33.1743"/>
<polygon fill="#000000" stroke="#000000" points="56.4822,-29.9432 45.9324,-28.9669 53.5708,-36.309 56.4822,-29.9432"/>
</g>
<!-- N7 -->
<g id="node7" class="node">
<title>N7</title>
<g id="a_node7"><a xlink:title="id: 7 max: Y dep: 0 trm: N&#10;stot: &#160;7 val: &#160;0 hv: 0 mxs: &#160;50 mns: 117&#10;hand: 6h Qh Jh &#160;stack: 5h 2h &#10;A4 23 34 44 53 63 74 84 94 04 J3 Q3 K4 ">
<polygon fill="none" stroke="#000000" points="126,-18 112.5,-36 85.5,-36 72,-18 85.5,0 112.5,0 126,-18"/>
<text text-anchor="middle" x="99" y="-14.3" font-family="Times,serif" font-size="14.00" fill="#000000">0</text>
</a>
</g>
</g>
<!-- N2&#45;&gt;N7 -->
<g id="edge6" class="edge">
<title>N2&#45;&gt;N7</title>
<path fill="none" stroke="#000000" d="M467.7006,-88.8251C406.693,-85.5741 255.2152,-74.0143 135,-36 132.4037,-35.179 129.7636,-34.1909 127.1533,-33.1055"/>
<polygon fill="#000000" stroke="#000000" points="128.5086,-29.8764 117.9613,-28.8737 125.5812,-36.2349 128.5086,-29.8764"/>
</g>
<!-- N8 -->
<g id="node8" class="node">
<title>N8</title>
<g id="a_node8"><a xlink:title="id: 8 max: Y dep: 0 trm: N&#10;stot: &#160;8 val: &#160;0 hv: 0 mxs: &#160;50 mns: 117&#10;hand: 6h Qh Jh &#160;stack: 5h 3h &#10;A4 24 33 44 53 63 74 84 94 04 J3 Q3 K4 ">
<polygon fill="none" stroke="#000000" points="198,-18 184.5,-36 157.5,-36 144,-18 157.5,0 184.5,0 198,-18"/>
<text text-anchor="middle" x="171" y="-14.3" font-family="Times,serif" font-size="14.00" fill="#000000">0</text>
</a>
</g>
</g>
<!-- N2&#45;&gt;N8 -->
<g id="edge7" class="edge">
<title>N2&#45;&gt;N8</title>
<path fill="none" stroke="#000000" d="M467.7634,-87.4439C415.8906,-82.0227 299.8166,-67.2224 207,-36 204.4191,-35.1318 201.7897,-34.1108 199.1865,-33.0037"/>
<polygon fill="#000000" stroke="#000000" points="200.5497,-29.7778 190.0062,-28.736 197.5988,-36.1254 200.5497,-29.7778"/>
</g>
<!-- N9 -->
<g id="node9" class="node">
<title>N9</title>
<g id="a_node9"><a xlink:title="id: 9 max: Y dep: 0 trm: N&#10;stot: &#160;9 val: &#160;0 hv: 0 mxs: &#160;50 mns: 117&#10;hand: 6h Qh Jh &#160;stack: 5h 4h &#10;A4 24 34 43 53 63 74 84 94 04 J3 Q3 K4 ">
<polygon fill="none" stroke="#000000" points="270,-18 256.5,-36 229.5,-36 216,-18 229.5,0 256.5,0 270,-18"/>
<text text-anchor="middle" x="243" y="-14.3" font-family="Times,serif" font-size="14.00" fill="#000000">0</text>
</a>
</g>
</g>
<!-- N2&#45;&gt;N9 -->
<g id="edge8" class="edge">
<title>N2&#45;&gt;N9</title>
<path fill="none" stroke="#000000" d="M467.8286,-85.1906C426.3184,-77.4041 344.9807,-60.4078 279,-36 276.5915,-35.109 274.1327,-34.103 271.6875,-33.0331"/>
<polygon fill="#000000" stroke="#000000" points="272.9998,-29.7827 262.4604,-28.7 270.0242,-36.1188 272.9998,-29.7827"/>
</g>
<!-- N10 -->
<g id="node10" class="node">
<title>N10</title>
<g id="a_node10"><a xlink:title="id: 10 max: Y dep: 0 trm: N&#10;stot: 10 val: &#45;2 hv: &#45;2 mxs: &#160;52 mns: 117&#10;hand: 6h Qh Jh &#160;stack: 5h 5h &#10;A4 24 34 44 52 63 74 84 94 04 J3 Q3 K4 ">
<polygon fill="none" stroke="#000000" points="342,-18 328.5,-36 301.5,-36 288,-18 301.5,0 328.5,0 342,-18"/>
<text text-anchor="middle" x="315" y="-14.3" font-family="Times,serif" font-size="14.00" fill="#000000">&#45;2</text>
</a>
</g>
</g>
<!-- N2&#45;&gt;N10 -->
<g id="edge9" class="edge">
<title>N2&#45;&gt;N10</title>
<path fill="none" stroke="#000000" d="M467.8581,-80.7789C438.6552,-70.6367 391.0154,-53.4495 351,-36 348.6461,-34.9735 346.2261,-33.8708 343.8076,-32.7349"/>
<polygon fill="#000000" stroke="#000000" points="345.154,-29.498 334.6293,-28.2805 342.0976,-35.7955 345.154,-29.498"/>
</g>
<!-- N11 -->
<g id="node11" class="node">
<title>N11</title>
<g id="a_node11"><a xlink:title="id: 11 max: Y dep: 0 trm: N&#10;stot: 11 val: &#160;0 hv: 0 mxs: &#160;50 mns: 117&#10;hand: 6h Qh Jh &#160;stack: 5h 6h &#10;A4 24 34 44 53 62 74 84 94 04 J3 Q3 K4 ">
<polygon fill="none" stroke="#000000" points="414,-18 400.5,-36 373.5,-36 360,-18 373.5,0 400.5,0 414,-18"/>
<text text-anchor="middle" x="387" y="-14.3" font-family="Times,serif" font-size="14.00" fill="#000000">0</text>
</a>
</g>
</g>
<!-- N2&#45;&gt;N11 -->
<g id="edge10" class="edge">
<title>N2&#45;&gt;N11</title>
<path fill="none" stroke="#000000" d="M467.747,-71.8314C451.1915,-60.7943 430.1486,-46.7657 413.6953,-35.7969"/>
<polygon fill="#000000" stroke="#000000" points="415.3464,-32.6911 405.0844,-30.0563 411.4634,-38.5155 415.3464,-32.6911"/>
</g>
<!-- N12 -->
<g id="node12" class="node">
<title>N12</title>
<g id="a_node12"><a xlink:title="id: 12 max: Y dep: 0 trm: N&#10;stot: 12 val: &#160;0 hv: 0 mxs: &#160;50 mns: 117&#10;hand: 6h Qh Jh &#160;stack: 5h 7h &#10;A4 24 34 44 53 63 73 84 94 04 J3 Q3 K4 ">
<polygon fill="none" stroke="#000000" points="486,-18 472.5,-36 445.5,-36 432,-18 445.5,0 472.5,0 486,-18"/>
<text text-anchor="middle" x="459" y="-14.3" font-family="Times,serif" font-size="14.00" fill="#000000">0</text>
</a>
</g>
</g>
<!-- N2&#45;&gt;N12 -->
<g id="edge11" class="edge">
<title>N2&#45;&gt;N12</title>
<path fill="none" stroke="#000000" d="M485.9157,-71.8314C481.9385,-63.8771 477.1845,-54.369 472.7861,-45.5723"/>
<polygon fill="#000000" stroke="#000000" points="475.8093,-43.7923 468.2066,-36.4133 469.5483,-46.9228 475.8093,-43.7923"/>
</g>
<!-- N13 -->
<g id="node13" class="node">
<title>N13</title>
<g id="a_node13"><a xlink:title="id: 13 max: Y dep: 0 trm: N&#10;stot: 13 val: &#160;0 hv: 0 mxs: &#160;50 mns: 117&#10;hand: 6h Qh Jh &#160;stack: 5h 8h &#10;A4 24 34 44 53 63 74 83 94 04 J3 Q3 K4 ">
<polygon fill="none" stroke="#000000" points="558,-18 544.5,-36 517.5,-36 504,-18 517.5,0 544.5,0 558,-18"/>
<text text-anchor="middle" x="531" y="-14.3" font-family="Times,serif" font-size="14.00" fill="#000000">0</text>
</a>
</g>
</g>
<!-- N2&#45;&gt;N13 -->
<g id="edge12" class="edge">
<title>N2&#45;&gt;N13</title>
<path fill="none" stroke="#000000" d="M504.0843,-71.8314C508.0615,-63.8771 512.8155,-54.369 517.2139,-45.5723"/>
<polygon fill="#000000" stroke="#000000" points="520.4517,-46.9228 521.7934,-36.4133 514.1907,-43.7923 520.4517,-46.9228"/>
</g>
<!-- N14 -->
<g id="node14" class="node">
<title>N14</title>
<g id="a_node14"><a xlink:title="id: 14 max: Y dep: 0 trm: N&#10;stot: 14 val: &#160;0 hv: 0 mxs: &#160;50 mns: 117&#10;hand: 6h Qh Jh &#160;stack: 5h 9h &#10;A4 24 34 44 53 63 74 84 93 04 J3 Q3 K4 ">
<polygon fill="none" stroke="#000000" points="630,-18 616.5,-36 589.5,-36 576,-18 589.5,0 616.5,0 630,-18"/>
<text text-anchor="middle" x="603" y="-14.3" font-family="Times,serif" font-size="14.00" fill="#000000">0</text>
</a>
</g>
</g>
<!-- N2&#45;&gt;N14 -->
<g id="edge13" class="edge">
<title>N2&#45;&gt;N14</title>
<path fill="none" stroke="#000000" d="M522.253,-71.8314C538.8085,-60.7943 559.8514,-46.7657 576.3047,-35.7969"/>
<polygon fill="#000000" stroke="#000000" points="578.5366,-38.5155 584.9156,-30.0563 574.6536,-32.6911 578.5366,-38.5155"/>
</g>
<!-- N15 -->
<g id="node15" class="node">
<title>N15</title>
<g id="a_node15"><a xlink:title="id: 15 max: Y dep: 0 trm: N&#10;stot: 15 val: &#45;2 hv: &#45;2 mxs: &#160;52 mns: 117&#10;hand: 6h Qh Jh &#160;stack: 5h 0h &#10;A4 24 34 44 53 63 74 84 94 03 J3 Q3 K4 ">
<polygon fill="none" stroke="#000000" points="702,-18 688.5,-36 661.5,-36 648,-18 661.5,0 688.5,0 702,-18"/>
<text text-anchor="middle" x="675" y="-14.3" font-family="Times,serif" font-size="14.00" fill="#000000">&#45;2</text>
</a>
</g>
</g>
<!-- N2&#45;&gt;N15 -->
<g id="edge14" class="edge">
<title>N2&#45;&gt;N15</title>
<path fill="none" stroke="#000000" d="M522.1419,-80.7789C551.3448,-70.6367 598.9846,-53.4495 639,-36 641.3539,-34.9735 643.7739,-33.8708 646.1924,-32.7349"/>
<polygon fill="#000000" stroke="#000000" points="647.9024,-35.7955 655.3707,-28.2805 644.846,-29.498 647.9024,-35.7955"/>
</g>
<!-- N16 -->
<g id="node16" class="node">
<title>N16</title>
<g id="a_node16"><a xlink:title="id: 16 max: Y dep: 0 trm: N&#10;stot: 15 val: &#45;2 hv: &#45;2 mxs: &#160;52 mns: 117&#10;hand: 6h Qh Jh &#160;stack: 5h Jh &#10;A4 24 34 44 53 63 74 84 94 04 J2 Q3 K4 ">
<polygon fill="none" stroke="#000000" points="774,-18 760.5,-36 733.5,-36 720,-18 733.5,0 760.5,0 774,-18"/>
<text text-anchor="middle" x="747" y="-14.3" font-family="Times,serif" font-size="14.00" fill="#000000">&#45;2</text>
</a>
</g>
</g>
<!-- N2&#45;&gt;N16 -->
<g id="edge15" class="edge">
<title>N2&#45;&gt;N16</title>
<path fill="none" stroke="#000000" d="M522.1714,-85.1906C563.6816,-77.4041 645.0193,-60.4078 711,-36 713.4085,-35.109 715.8673,-34.103 718.3125,-33.0331"/>
<polygon fill="#000000" stroke="#000000" points="719.9758,-36.1188 727.5396,-28.7 717.0002,-29.7827 719.9758,-36.1188"/>
</g>
<!-- N17 -->
<g id="node17" class="node">
<title>N17</title>
<g id="a_node17"><a xlink:title="id: 17 max: Y dep: 0 trm: N&#10;stot: 15 val: &#45;2 hv: &#45;2 mxs: &#160;52 mns: 117&#10;hand: 6h Qh Jh &#160;stack: 5h Qh &#10;A4 24 34 44 53 63 74 84 94 04 J3 Q2 K4 ">
<polygon fill="none" stroke="#000000" points="846,-18 832.5,-36 805.5,-36 792,-18 805.5,0 832.5,0 846,-18"/>
<text text-anchor="middle" x="819" y="-14.3" font-family="Times,serif" font-size="14.00" fill="#000000">&#45;2</text>
</a>
</g>
</g>
<!-- N2&#45;&gt;N17 -->
<g id="edge16" class="edge">
<title>N2&#45;&gt;N17</title>
<path fill="none" stroke="#000000" d="M522.2366,-87.4439C574.1094,-82.0227 690.1834,-67.2224 783,-36 785.5809,-35.1318 788.2103,-34.1108 790.8135,-33.0037"/>
<polygon fill="#000000" stroke="#000000" points="792.4012,-36.1254 799.9938,-28.736 789.4503,-29.7778 792.4012,-36.1254"/>
</g>
<!-- N18 -->
<g id="node18" class="node">
<title>N18</title>
<g id="a_node18"><a xlink:title="id: 18 max: Y dep: 0 trm: N&#10;stot: 15 val: &#45;2 hv: &#45;2 mxs: &#160;52 mns: 117&#10;hand: 6h Qh Jh &#160;stack: 5h Kh &#10;A4 24 34 44 53 63 74 84 94 04 J3 Q3 K3 ">
<polygon fill="none" stroke="#000000" points="918,-18 904.5,-36 877.5,-36 864,-18 877.5,0 904.5,0 918,-18"/>
<text text-anchor="middle" x="891" y="-14.3" font-family="Times,serif" font-size="14.00" fill="#000000">&#45;2</text>
</a>
</g>
</g>
<!-- N2&#45;&gt;N18 -->
<g id="edge17" class="edge">
<title>N2&#45;&gt;N18</title>
<path fill="none" stroke="#000000" d="M522.2994,-88.8251C583.307,-85.5741 734.7848,-74.0143 855,-36 857.5963,-35.179 860.2364,-34.1909 862.8467,-33.1055"/>
<polygon fill="#000000" stroke="#000000" points="864.4188,-36.2349 872.0387,-28.8737 861.4914,-29.8764 864.4188,-36.2349"/>
</g>
<!-- N19 -->
<g id="node19" class="node">
<title>N19</title>
<g id="a_node19"><a xlink:title="id: 19 max: Y dep: 0 trm: N&#10;stot: &#160;7 val: &#160;0 hv: 0 mxs: &#160;50 mns: 117&#10;hand: 5h Qh Jh &#160;stack: 6h Ah &#10;A3 24 34 44 53 63 74 84 94 04 J3 Q3 K4 ">
<polygon fill="none" stroke="#000000" points="990,-18 976.5,-36 949.5,-36 936,-18 949.5,0 976.5,0 990,-18"/>
<text text-anchor="middle" x="963" y="-14.3" font-family="Times,serif" font-size="14.00" fill="#000000">0</text>
</a>
</g>
</g>
<!-- N3&#45;&gt;N19 -->
<g id="edge18" class="edge">
<title>N3&#45;&gt;N19</title>
<path fill="none" stroke="#000000" d="M1151.977,-83.4472C1116.3309,-74.4536 1051.9225,-56.9879 999,-36 996.6129,-35.0533 994.1692,-34.0075 991.7345,-32.9105"/>
<polygon fill="#000000" stroke="#000000" points="993.0601,-29.6653 982.5265,-28.5275 990.0515,-35.9857 993.0601,-29.6653"/>
</g>
<!-- N20 -->
<g id="node20" class="node">
<title>N20</title>
<g id="a_node20"><a xlink:title="id: 20 max: Y dep: 0 trm: N&#10;stot: &#160;8 val: &#160;0 hv: 0 mxs: &#160;50 mns: 117&#10;hand: 5h Qh Jh &#160;stack: 6h 2h &#10;A4 23 34 44 53 63 74 84 94 04 J3 Q3 K4 ">
<polygon fill="none" stroke="#000000" points="1062,-18 1048.5,-36 1021.5,-36 1008,-18 1021.5,0 1048.5,0 1062,-18"/>
<text text-anchor="middle" x="1035" y="-14.3" font-family="Times,serif" font-size="14.00" fill="#000000">0</text>
</a>
</g>
</g>
<!-- N3&#45;&gt;N20 -->
<g id="edge19" class="edge">
<title>N3&#45;&gt;N20</title>
<path fill="none" stroke="#000000" d="M1151.9147,-76.4574C1126.9189,-63.9595 1089.8985,-45.4492 1064.2397,-32.6198"/>
<polygon fill="#000000" stroke="#000000" points="1065.5203,-29.3471 1055.0108,-28.0054 1062.3898,-35.6081 1065.5203,-29.3471"/>
</g>
<!-- N21 -->
<g id="node21" class="node">
<title>N21</title>
<g id="a_node21"><a xlink:title="id: 21 max: Y dep: 0 trm: N&#10;stot: &#160;9 val: &#160;0 hv: 0 mxs: &#160;50 mns: 117&#10;hand: 5h Qh Jh &#160;stack: 6h 3h &#10;A4 24 33 44 53 63 74 84 94 04 J3 Q3 K4 ">
<polygon fill="none" stroke="#000000" points="1134,-18 1120.5,-36 1093.5,-36 1080,-18 1093.5,0 1120.5,0 1134,-18"/>
<text text-anchor="middle" x="1107" y="-14.3" font-family="Times,serif" font-size="14.00" fill="#000000">0</text>
</a>
</g>
</g>
<!-- N3&#45;&gt;N21 -->
<g id="edge20" class="edge">
<title>N3&#45;&gt;N21</title>
<path fill="none" stroke="#000000" d="M1160.8314,-71.8314C1151.4034,-62.4034 1139.7926,-50.7926 1129.7706,-40.7706"/>
<polygon fill="#000000" stroke="#000000" points="1132.0249,-38.0752 1122.479,-33.479 1127.0752,-43.0249 1132.0249,-38.0752"/>
</g>
<!-- N22 -->
<g id="node22" class="node">
<title>N22</title>
<g id="a_node22"><a xlink:title="id: 22 max: Y dep: 0 trm: N&#10;stot: 10 val: &#160;0 hv: 0 mxs: &#160;50 mns: 117&#10;hand: 5h Qh Jh &#160;stack: 6h 4h &#10;A4 24 34 43 53 63 74 84 94 04 J3 Q3 K4 ">
<polygon fill="none" stroke="#000000" points="1206,-18 1192.5,-36 1165.5,-36 1152,-18 1165.5,0 1192.5,0 1206,-18"/>
<text text-anchor="middle" x="1179" y="-14.3" font-family="Times,serif" font-size="14.00" fill="#000000">0</text>
</a>
</g>
</g>
<!-- N3&#45;&gt;N22 -->
<g id="edge21" class="edge">
<title>N3&#45;&gt;N22</title>
<path fill="none" stroke="#000000" d="M1179,-71.8314C1179,-64.131 1179,-54.9743 1179,-46.4166"/>
<polygon fill="#000000" stroke="#000000" points="1182.5001,-46.4132 1179,-36.4133 1175.5001,-46.4133 1182.5001,-46.4132"/>
</g>
<!-- N23 -->
<g id="node23" class="node">
<title>N23</title>
<g id="a_node23"><a xlink:title="id: 23 max: Y dep: 0 trm: N&#10;stot: 11 val: &#160;0 hv: 0 mxs: &#160;50 mns: 117&#10;hand: 5h Qh Jh &#160;stack: 6h 5h &#10;A4 24 34 44 52 63 74 84 94 04 J3 Q3 K4 ">
<polygon fill="none" stroke="#000000" points="1278,-18 1264.5,-36 1237.5,-36 1224,-18 1237.5,0 1264.5,0 1278,-18"/>
<text text-anchor="middle" x="1251" y="-14.3" font-family="Times,serif" font-size="14.00" fill="#000000">0</text>
</a>
</g>
</g>
<!-- N3&#45;&gt;N23 -->
<g id="edge22" class="edge">
<title>N3&#45;&gt;N23</title>
<path fill="none" stroke="#000000" d="M1197.1686,-71.8314C1206.5966,-62.4034 1218.2074,-50.7926 1228.2294,-40.7706"/>
<polygon fill="#000000" stroke="#000000" points="1230.9248,-43.0249 1235.521,-33.479 1225.9751,-38.0752 1230.9248,-43.0249"/>
</g>
<!-- N24 -->
<g id="node24" class="node">
<title>N24</title>
<g id="a_node24"><a xlink:title="id: 24 max: Y dep: 0 trm: N&#10;stot: 12 val: &#45;2 hv: &#45;2 mxs: &#160;52 mns: 117&#10;hand: 5h Qh Jh &#160;stack: 6h 6h &#10;A4 24 34 44 53 62 74 84 94 04 J3 Q3 K4 ">
<polygon fill="none" stroke="#000000" points="1350,-18 1336.5,-36 1309.5,-36 1296,-18 1309.5,0 1336.5,0 1350,-18"/>
<text text-anchor="middle" x="1323" y="-14.3" font-family="Times,serif" font-size="14.00" fill="#000000">&#45;2</text>
</a>
</g>
</g>
<!-- N3&#45;&gt;N24 -->
<g id="edge23" class="edge">
<title>N3&#45;&gt;N24</title>
<path fill="none" stroke="#000000" d="M1206.0853,-76.4574C1231.0811,-63.9595 1268.1015,-45.4492 1293.7603,-32.6198"/>
<polygon fill="#000000" stroke="#000000" points="1295.6102,-35.6081 1302.9892,-28.0054 1292.4797,-29.3471 1295.6102,-35.6081"/>
</g>
<!-- N32 -->
<g id="node25" class="node">
<title>N32</title>
<g id="a_node25"><a xlink:title="id: 32 max: Y dep: 0 trm: N&#10;stot: 11 val: &#160;0 hv: 0 mxs: &#160;50 mns: 117&#10;hand: 5h 6h Jh &#160;stack: Qh Ah &#10;A3 24 34 44 53 63 74 84 94 04 J3 Q3 K4 ">
<polygon fill="none" stroke="#000000" points="1422,-18 1408.5,-36 1381.5,-36 1368,-18 1381.5,0 1408.5,0 1422,-18"/>
<text text-anchor="middle" x="1395" y="-14.3" font-family="Times,serif" font-size="14.00" fill="#000000">0</text>
</a>
</g>
</g>
<!-- N4&#45;&gt;N32 -->
<g id="edge24" class="edge">
<title>N4&#45;&gt;N32</title>
<path fill="none" stroke="#000000" d="M1475.747,-71.8314C1459.1915,-60.7943 1438.1486,-46.7657 1421.6953,-35.7969"/>
<polygon fill="#000000" stroke="#000000" points="1423.3464,-32.6911 1413.0844,-30.0563 1419.4634,-38.5155 1423.3464,-32.6911"/>
</g>
<!-- N33 -->
<g id="node26" class="node">
<title>N33</title>
<g id="a_node26"><a xlink:title="id: 33 max: Y dep: 0 trm: N&#10;stot: 12 val: &#160;0 hv: 0 mxs: &#160;50 mns: 117&#10;hand: 5h 6h Jh &#160;stack: Qh 2h &#10;A4 23 34 44 53 63 74 84 94 04 J3 Q3 K4 ">
<polygon fill="none" stroke="#000000" points="1494,-18 1480.5,-36 1453.5,-36 1440,-18 1453.5,0 1480.5,0 1494,-18"/>
<text text-anchor="middle" x="1467" y="-14.3" font-family="Times,serif" font-size="14.00" fill="#000000">0</text>
</a>
</g>
</g>
<!-- N4&#45;&gt;N33 -->
<g id="edge25" class="edge">
<title>N4&#45;&gt;N33</title>
<path fill="none" stroke="#000000" d="M1493.9157,-71.8314C1489.9385,-63.8771 1485.1845,-54.369 1480.7861,-45.5723"/>
<polygon fill="#000000" stroke="#000000" points="1483.8093,-43.7923 1476.2066,-36.4133 1477.5483,-46.9228 1483.8093,-43.7923"/>
</g>
<!-- N34 -->
<g id="node27" class="node">
<title>N34</title>
<g id="a_node27"><a xlink:title="id: 34 max: Y dep: 0 trm: N&#10;stot: 13 val: &#160;0 hv: 0 mxs: &#160;50 mns: 117&#10;hand: 5h 6h Jh &#160;stack: Qh 3h &#10;A4 24 33 44 53 63 74 84 94 04 J3 Q3 K4 ">
<polygon fill="none" stroke="#000000" points="1566,-18 1552.5,-36 1525.5,-36 1512,-18 1525.5,0 1552.5,0 1566,-18"/>
<text text-anchor="middle" x="1539" y="-14.3" font-family="Times,serif" font-size="14.00" fill="#000000">0</text>
</a>
</g>
</g>
<!-- N4&#45;&gt;N34 -->
<g id="edge26" class="edge">
<title>N4&#45;&gt;N34</title>
<path fill="none" stroke="#000000" d="M1512.0843,-71.8314C1516.0615,-63.8771 1520.8155,-54.369 1525.2139,-45.5723"/>
<polygon fill="#000000" stroke="#000000" points="1528.4517,-46.9228 1529.7934,-36.4133 1522.1907,-43.7923 1528.4517,-46.9228"/>
</g>
<!-- N35 -->
<g id="node28" class="node">
<title>N35</title>
<g id="a_node28"><a xlink:title="id: 35 max: Y dep: 0 trm: N&#10;stot: 14 val: &#160;0 hv: 0 mxs: &#160;50 mns: 117&#10;hand: 5h 6h Jh &#160;stack: Qh 4h &#10;A4 24 34 43 53 63 74 84 94 04 J3 Q3 K4 ">
<polygon fill="none" stroke="#000000" points="1638,-18 1624.5,-36 1597.5,-36 1584,-18 1597.5,0 1624.5,0 1638,-18"/>
<text text-anchor="middle" x="1611" y="-14.3" font-family="Times,serif" font-size="14.00" fill="#000000">0</text>
</a>
</g>
</g>
<!-- N4&#45;&gt;N35 -->
<g id="edge27" class="edge">
<title>N4&#45;&gt;N35</title>
<path fill="none" stroke="#000000" d="M1530.253,-71.8314C1546.8085,-60.7943 1567.8514,-46.7657 1584.3047,-35.7969"/>
<polygon fill="#000000" stroke="#000000" points="1586.5366,-38.5155 1592.9156,-30.0563 1582.6536,-32.6911 1586.5366,-38.5155"/>
</g>
<!-- N36 -->
<g id="node29" class="node">
<title>N36</title>
<g id="a_node29"><a xlink:title="id: 36 max: Y dep: 0 trm: N&#10;stot: 15 val: &#45;2 hv: &#45;2 mxs: &#160;52 mns: 117&#10;hand: 5h 6h Jh &#160;stack: Qh 5h &#10;A4 24 34 44 52 63 74 84 94 04 J3 Q3 K4 ">
<polygon fill="none" stroke="#000000" points="1710,-18 1696.5,-36 1669.5,-36 1656,-18 1669.5,0 1696.5,0 1710,-18"/>
<text text-anchor="middle" x="1683" y="-14.3" font-family="Times,serif" font-size="14.00" fill="#000000">&#45;2</text>
</a>
</g>
</g>
<!-- N4&#45;&gt;N36 -->
<g id="edge28" class="edge">
<title>N4&#45;&gt;N36</title>
<path fill="none" stroke="#000000" d="M1530.1419,-80.7789C1559.3448,-70.6367 1606.9846,-53.4495 1647,-36 1649.3539,-34.9735 1651.7739,-33.8708 1654.1924,-32.7349"/>
<polygon fill="#000000" stroke="#000000" points="1655.9024,-35.7955 1663.3707,-28.2805 1652.846,-29.498 1655.9024,-35.7955"/>
</g>
<!-- N45 -->
<g id="node30" class="node">
<title>N45</title>
<g id="a_node30"><a xlink:title="id: 45 max: Y dep: 0 trm: N&#10;stot: 11 val: &#160;0 hv: 0 mxs: &#160;50 mns: 117&#10;hand: 5h 6h Qh &#160;stack: Jh Ah &#10;A3 24 34 44 53 63 74 84 94 04 J3 Q3 K4 ">
<polygon fill="none" stroke="#000000" points="1782,-18 1768.5,-36 1741.5,-36 1728,-18 1741.5,0 1768.5,0 1782,-18"/>
<text text-anchor="middle" x="1755" y="-14.3" font-family="Times,serif" font-size="14.00" fill="#000000">0</text>
</a>
</g>
</g>
<!-- N5&#45;&gt;N45 -->
<g id="edge29" class="edge">
<title>N5&#45;&gt;N45</title>
<path fill="none" stroke="#000000" d="M1835.747,-71.8314C1819.1915,-60.7943 1798.1486,-46.7657 1781.6953,-35.7969"/>
<polygon fill="#000000" stroke="#000000" points="1783.3464,-32.6911 1773.0844,-30.0563 1779.4634,-38.5155 1783.3464,-32.6911"/>
</g>
<!-- N46 -->
<g id="node31" class="node">
<title>N46</title>
<g id="a_node31"><a xlink:title="id: 46 max: Y dep: 0 trm: N&#10;stot: 12 val: &#160;0 hv: 0 mxs: &#160;50 mns: 117&#10;hand: 5h 6h Qh &#160;stack: Jh 2h &#10;A4 23 34 44 53 63 74 84 94 04 J3 Q3 K4 ">
<polygon fill="none" stroke="#000000" points="1854,-18 1840.5,-36 1813.5,-36 1800,-18 1813.5,0 1840.5,0 1854,-18"/>
<text text-anchor="middle" x="1827" y="-14.3" font-family="Times,serif" font-size="14.00" fill="#000000">0</text>
</a>
</g>
</g>
<!-- N5&#45;&gt;N46 -->
<g id="edge30" class="edge">
<title>N5&#45;&gt;N46</title>
<path fill="none" stroke="#000000" d="M1853.9157,-71.8314C1849.9385,-63.8771 1845.1845,-54.369 1840.7861,-45.5723"/>
<polygon fill="#000000" stroke="#000000" points="1843.8093,-43.7923 1836.2066,-36.4133 1837.5483,-46.9228 1843.8093,-43.7923"/>
</g>
<!-- N47 -->
<g id="node32" class="node">
<title>N47</title>
<g id="a_node32"><a xlink:title="id: 47 max: Y dep: 0 trm: N&#10;stot: 13 val: &#160;0 hv: 0 mxs: &#160;50 mns: 117&#10;hand: 5h 6h Qh &#160;stack: Jh 3h &#10;A4 24 33 44 53 63 74 84 94 04 J3 Q3 K4 ">
<polygon fill="none" stroke="#000000" points="1926,-18 1912.5,-36 1885.5,-36 1872,-18 1885.5,0 1912.5,0 1926,-18"/>
<text text-anchor="middle" x="1899" y="-14.3" font-family="Times,serif" font-size="14.00" fill="#000000">0</text>
</a>
</g>
</g>
<!-- N5&#45;&gt;N47 -->
<g id="edge31" class="edge">
<title>N5&#45;&gt;N47</title>
<path fill="none" stroke="#000000" d="M1872.0843,-71.8314C1876.0615,-63.8771 1880.8155,-54.369 1885.2139,-45.5723"/>
<polygon fill="#000000" stroke="#000000" points="1888.4517,-46.9228 1889.7934,-36.4133 1882.1907,-43.7923 1888.4517,-46.9228"/>
</g>
<!-- N48 -->
<g id="node33" class="node">
<title>N48</title>
<g id="a_node33"><a xlink:title="id: 48 max: Y dep: 0 trm: N&#10;stot: 14 val: &#160;0 hv: 0 mxs: &#160;50 mns: 117&#10;hand: 5h 6h Qh &#160;stack: Jh 4h &#10;A4 24 34 43 53 63 74 84 94 04 J3 Q3 K4 ">
<polygon fill="none" stroke="#000000" points="1998,-18 1984.5,-36 1957.5,-36 1944,-18 1957.5,0 1984.5,0 1998,-18"/>
<text text-anchor="middle" x="1971" y="-14.3" font-family="Times,serif" font-size="14.00" fill="#000000">0</text>
</a>
</g>
</g>
<!-- N5&#45;&gt;N48 -->
<g id="edge32" class="edge">
<title>N5&#45;&gt;N48</title>
<path fill="none" stroke="#000000" d="M1890.253,-71.8314C1906.8085,-60.7943 1927.8514,-46.7657 1944.3047,-35.7969"/>
<polygon fill="#000000" stroke="#000000" points="1946.5366,-38.5155 1952.9156,-30.0563 1942.6536,-32.6911 1946.5366,-38.5155"/>
</g>
<!-- N49 -->
<g id="node34" class="node">
<title>N49</title>
<g id="a_node34"><a xlink:title="id: 49 max: Y dep: 0 trm: N&#10;stot: 15 val: &#45;2 hv: &#45;2 mxs: &#160;52 mns: 117&#10;hand: 5h 6h Qh &#160;stack: Jh 5h &#10;A4 24 34 44 52 63 74 84 94 04 J3 Q3 K4 ">
<polygon fill="none" stroke="#000000" points="2070,-18 2056.5,-36 2029.5,-36 2016,-18 2029.5,0 2056.5,0 2070,-18"/>
<text text-anchor="middle" x="2043" y="-14.3" font-family="Times,serif" font-size="14.00" fill="#000000">&#45;2</text>
</a>
</g>
</g>
<!-- N5&#45;&gt;N49 -->
<g id="edge33" class="edge">
<title>N5&#45;&gt;N49</title>
<path fill="none" stroke="#000000" d="M1890.1419,-80.7789C1919.3448,-70.6367 1966.9846,-53.4495 2007,-36 2009.3539,-34.9735 2011.7739,-33.8708 2014.1924,-32.7349"/>
<polygon fill="#000000" stroke="#000000" points="2015.9024,-35.7955 2023.3707,-28.2805 2012.846,-29.498 2015.9024,-35.7955"/>
</g>
</g>
</svg>
